<svg xmlns="http://www.w3.org/2000/svg" xmlns:xlink="http://www.w3.org/1999/xlink" width="400" height="381" viewBox="0 0 400 381"><defs><style>.a{fill:#d6d6d9;}.b,.m,.n,.o,.p{opacity:0.5;}.c{fill:url(#a);}.d{fill:#fafafa;}.e{fill:url(#b);}.f{fill:url(#c);}.g{fill:#557a95;}.h{fill:url(#d);}.i{fill:#fff;}.j{fill:url(#e);}.k{fill:url(#f);}.l,.p{fill:#47e6b1;}.m{fill:#4d8af0;}.n{fill:#fdd835;}.o{fill:#f55f44;}</style><linearGradient id="a" x1="0.509" y1="0.997" x2="0.509" y2="-0.003" gradientUnits="objectBoundingBox"><stop offset="0" stop-color="#bebec0"/><stop offset="0.54" stop-color="gray" stop-opacity="0.122"/><stop offset="1" stop-color="gray" stop-opacity="0.102"/></linearGradient><linearGradient id="b" x1="0.813" y1="0.841" x2="0.813" y2="-0.159" gradientUnits="objectBoundingBox"><stop offset="0" stop-color="gray" stop-opacity="0.251"/><stop offset="0.54" stop-color="gray" stop-opacity="0.122"/><stop offset="1" stop-color="gray" stop-opacity="0.102"/></linearGradient><linearGradient id="c" x1="1.78" y1="0.849" x2="1.78" y2="-0.151" xlink:href="#b"/><linearGradient id="d" x1="0.5" y1="1" x2="0.5" y2="0" xlink:href="#a"/><linearGradient id="e" x1="0.5" y1="1" x2="0.5" y2="0" xlink:href="#b"/><linearGradient id="f" x1="0.5" y1="0.999" x2="0.5" y2="-0.001" xlink:href="#b"/></defs><g transform="translate(-592.03 -503.242)"><g transform="translate(592.03 503.242)"><rect class="a" width="213.777" height="294.681" transform="matrix(0.978, -0.21, 0.21, 0.978, 33.794, 66.142)"/><g class="b" transform="translate(38.374 27.046)"><rect class="c" width="206.556" height="284.702" transform="matrix(0.978, -0.21, 0.21, 0.978, 0, 43.219)"/></g><rect class="d" width="201.3" height="278.4" transform="matrix(0.978, -0.21, 0.21, 0.978, 41.381, 71.767)"/><rect class="e" width="99.806" height="24.177" transform="matrix(0.978, -0.21, 0.21, 0.978, 88.371, 49.354)"/><path class="f" d="M449.46,91.579a14.286,14.286,0,1,0,16.623,11.04A14.119,14.119,0,0,0,449.46,91.579Zm4.728,22.05a8.243,8.243,0,1,1,6.141-9.778,8.145,8.145,0,0,1-6.141,9.778Z" transform="translate(-317.283 -75.783)"/><rect class="g" width="97.704" height="23.111" transform="matrix(0.978, -0.21, 0.21, 0.978, 89.18, 48.119)"/><path class="g" d="M449.648,91.579a13.655,13.655,0,1,0,16.217,10.487A13.655,13.655,0,0,0,449.648,91.579Zm4.518,21.072a7.881,7.881,0,1,1,6.053-9.358,7.881,7.881,0,0,1-6.053,9.358Z" transform="translate(-317.471 -75.783)"/><rect class="a" width="213.663" height="294.468" transform="translate(125.419 57.158)"/><g class="b" transform="translate(129.039 61.405)"><rect class="h" width="206.442" height="285.234"/></g><rect class="i" width="201.186" height="278.932" transform="translate(131.669 63.508)"/><rect class="j" width="99.806" height="24.177" transform="translate(182.676 52.157)"/><path class="k" d="M652.274,118a14.29,14.29,0,1,0,13.953,14.286A14.123,14.123,0,0,0,652.274,118Zm0,22.529a8.243,8.243,0,1,1,8.047-8.243,8.145,8.145,0,0,1-8.047,8.2Z" transform="translate(-419.674 -89.443)"/><rect class="g" width="97.704" height="23.111" transform="translate(183.728 51.12)"/><path class="g" d="M652.585,118a13.655,13.655,0,1,0,13.655,13.655A13.655,13.655,0,0,0,652.585,118Zm0,21.536a7.889,7.889,0,1,0,0-.024Z" transform="translate(-419.986 -89.443)"/><g class="b" transform="translate(3.173 359.606)"><rect class="l" width="1.838" height="10.428" transform="translate(4.293)"/><rect class="l" width="1.838" height="10.428" transform="translate(10.428 4.298) rotate(90)"/></g><g class="b" transform="translate(215.897)"><rect class="l" width="1.838" height="10.428" transform="translate(4.293)"/><rect class="l" width="1.838" height="10.428" transform="translate(10.428 4.293) rotate(90)"/></g><path class="m" d="M953.125,827.791a2.254,2.254,0,0,1-1.257-2.723,1.085,1.085,0,0,0,.049-.249h0a1.129,1.129,0,0,0-2.029-.748h0a1.09,1.09,0,0,0-.127.22,2.254,2.254,0,0,1-2.723,1.257,1.077,1.077,0,0,0-.249-.049h0a1.129,1.129,0,0,0-.748,2.029h0a1.074,1.074,0,0,0,.22.127,2.254,2.254,0,0,1,1.256,2.723,1.076,1.076,0,0,0-.049.249h0a1.129,1.129,0,0,0,2.029.748h0a1.079,1.079,0,0,0,.127-.22,2.254,2.254,0,0,1,2.723-1.257,1.088,1.088,0,0,0,.249.049h0a1.129,1.129,0,0,0,.748-2.029h0a1.093,1.093,0,0,0-.22-.127Z" transform="translate(-577.125 -450.824)"/><path class="n" d="M318.715,622.731a2.254,2.254,0,0,1-1.257-2.723,1.081,1.081,0,0,0,.049-.249h0a1.129,1.129,0,0,0-2.029-.748h0a1.094,1.094,0,0,0-.127.22,2.254,2.254,0,0,1-2.723,1.257,1.085,1.085,0,0,0-.249-.049h0a1.129,1.129,0,0,0-.748,2.029h0a1.082,1.082,0,0,0,.22.127,2.254,2.254,0,0,1,1.256,2.723,1.085,1.085,0,0,0-.049.249h0a1.129,1.129,0,0,0,2.029.748h0a1.087,1.087,0,0,0,.127-.22,2.254,2.254,0,0,1,2.723-1.257,1.072,1.072,0,0,0,.249.049h0a1.129,1.129,0,0,0,.748-2.029h0a1.085,1.085,0,0,0-.22-.127Z" transform="translate(-251.895 -345.82)"/><path class="n" d="M847.125,123.411a2.254,2.254,0,0,1-1.257-2.723,1.079,1.079,0,0,0,.049-.249h0a1.129,1.129,0,0,0-2.029-.748h0a1.089,1.089,0,0,0-.127.22,2.254,2.254,0,0,1-2.723,1.257,1.086,1.086,0,0,0-.249-.049h0a1.129,1.129,0,0,0-.748,2.029h0a1.081,1.081,0,0,0,.22.127A2.254,2.254,0,0,1,841.517,126a1.085,1.085,0,0,0-.049.249h0a1.129,1.129,0,0,0,2.029.748h0a1.084,1.084,0,0,0,.127-.22,2.254,2.254,0,0,1,2.723-1.257,1.087,1.087,0,0,0,.249.049h0a1.129,1.129,0,0,0,.748-2.029h0A1.089,1.089,0,0,0,847.125,123.411Z" transform="translate(-522.76 -90.077)"/><circle class="o" cx="3.681" cy="3.681" r="3.681" transform="translate(392.637 149.767)"/><circle class="o" cx="3.681" cy="3.681" r="3.681" transform="translate(108.85 360.618)"/><circle class="o" cx="3.681" cy="3.681" r="3.681" transform="translate(354.83 229.184)"/><circle class="m" cx="3.681" cy="3.681" r="3.681" transform="translate(38.922 43.425)"/><circle class="p" cx="3.681" cy="3.681" r="3.681" transform="translate(0 143.566)"/></g></g></svg>