<svg xmlns="http://www.w3.org/2000/svg" width="24" height="24" viewBox="0 0 24 24"><defs><style>.a{fill:none;}.b{fill:#bebec0;}</style></defs><rect class="a" width="24" height="24"/><circle class="b" cx="2" cy="2" r="2" transform="translate(5 5)"/><path class="b" d="M20,13V4.83a2.828,2.828,0,0,0-4.83-2L13.92,4.08A1.7,1.7,0,0,0,13.41,4a1.986,1.986,0,0,0-1.08.32l2.76,2.76A1.986,1.986,0,0,0,15.41,6a2.163,2.163,0,0,0-.07-.51l1.25-1.25A.827.827,0,0,1,18,4.83V13H11.15a5.1,5.1,0,0,1-.82-.72l-1.4-1.55a2.145,2.145,0,0,0-.69-.5,2.291,2.291,0,0,0-1-.23A2.251,2.251,0,0,0,5,12.25V13H2v6a2.006,2.006,0,0,0,2,2,1,1,0,0,0,1,1H19a1,1,0,0,0,1-1,2.006,2.006,0,0,0,2-2V13Z"/></svg>