<svg xmlns="http://www.w3.org/2000/svg" width="24" height="24" viewBox="0 0 24 24"><defs><style>.a{fill:none;}.b{fill:#557a95;}</style></defs><rect class="a" width="24" height="24"/><rect class="a" width="5" height="3" transform="translate(6 7)"/><rect class="a" width="5" height="3" transform="translate(13 7)"/><path class="b" d="M20,10V7a2.006,2.006,0,0,0-2-2H6A2.006,2.006,0,0,0,4,7v3a2.006,2.006,0,0,0-2,2v5H3.33L4,19H5l.67-2H18.34L19,19h1l.67-2H22V12A2.006,2.006,0,0,0,20,10Zm-9,0H6V7h5Zm7,0H13V7h5Z"/></svg>